# xmcd
#
# Track frame offsets: 
#        150
#        13097
#        25673
#        36197
#        50932
#        63133
#        77833
#        89702
#        104199
#        116673
#        130843
#        142224
#        157204
#        169288
#        179606
#        189252
#        199390
#        208597
#
# Disc length: 2928 seconds
#
# Revision: 0
# Processed by: cddbd v1.5.2PL0 Copyright (c) Steve Scherf et al.
# Submitted via: ExactAudioCopyFreeDBPlugin 1.0
#
DISCID=180b6e12
DTITLE=Hank Snow - Milestones Of A Country Legend [CD 8)
DYEAR=1900
DGENRE=Country
TTITLE0=I Love You Because
TTITLE1=I Care No More
TTITLE2=A Legend in My Time
TTITLE3=That Heart Belongs to Me
TTITLE4=Fräulein
TTITLE5=Bury Me Deep
TTITLE6=Send Me the Pillow You Dream On
TTITLE7=A Petal from a Faded Rose
TTITLE8=Return to Me
TTITLE9=I´ll Go on Alone
TTITLE10=Mansion on the Hill
TTITLE11=Address Unknown
TTITLE12=Two Won´t Care
TTITLE13=La Paloma
TTITLE14=New Spanish Two-Step
TTITLE15=Reminiscin´ (Echoing Guitars)
TTITLE16=La Cucaracha
TTITLE17=In an Eighteenth Century Drawing Room
EXTD=
EXTT0=
EXTT1=
EXTT2=
EXTT3=
EXTT4=
EXTT5=
EXTT6=
EXTT7=
EXTT8=
EXTT9=
EXTT10=
EXTT11=
EXTT12=
EXTT13=
EXTT14=
EXTT15=
EXTT16=
EXTT17=
PLAYORDER=
